<svg width="14" height="14" viewBox="0 0 14 14" fill="none" xmlns="http://www.w3.org/2000/svg">
<g clip-path="url(#clip0)">
<rect x="0.375" y="0.375" width="13.25" height="13.25" rx="2.625" stroke="white" stroke-width="0.75"/>
<path d="M4 4.5H7.5C8.05 4.5 8.5 4.95 8.5 5.5V7C8.5 7.55 8.05 8 7.5 8H7L5.75 9.25V8H4C3.45 8 3 7.55 3 7V5.5C3 4.95 3.45 4.5 4 4.5Z" stroke="white" stroke-width="0.75" stroke-linecap="round" stroke-linejoin="round"/>
<path d="M6.5 6.5H10C10.55 6.5 11 6.95 11 7.5V9C11 9.55 10.55 10 10 10H9.5L8.25 11.25V10H6.5C5.95 10 5.5 9.55 5.5 9V7.5C5.5 6.95 5.95 6.5 6.5 6.5Z" stroke="white" stroke-width="0.75" stroke-linecap="round" stroke-linejoin="round"/>
</g>
<defs>
<clipPath id="clip0">
<rect width="14" height="14" fill="white"/>
</clipPath>
</defs>
</svg>
